<?xml version="1.0" standalone="no"?>
<!DOCTYPE svg PUBLIC "-//W3C//DTD SVG 20010904//EN"
 "http://www.w3.org/TR/2001/REC-SVG-20010904/DTD/svg10.dtd">
<svg version="1.0" xmlns="http://www.w3.org/2000/svg"
 width="300.000000pt" height="300.000000pt" viewBox="0 0 300.000000 300.000000"
 preserveAspectRatio="xMidYMid meet">
<metadata>
Created by potrace 1.11, written by Peter Selinger 2001-2013
</metadata>
<g transform="translate(0.000000,300.000000) scale(0.100000,-0.100000)"
fill="#000000" stroke="none">
<path d="M1429 2988 c-64 -11 -73 -13 -86 -21 -7 -5 -13 -5 -13 -1 0 3 -7 1
-15 -6 -9 -7 -30 -13 -47 -12 -40 1 -112 -23 -158 -54 -21 -14 -50 -27 -65
-30 -15 -3 -34 -11 -42 -19 -8 -8 -19 -15 -25 -15 -6 0 -37 -18 -68 -39 -32
-22 -61 -37 -64 -34 -3 4 -6 -1 -6 -10 0 -9 -6 -17 -13 -17 -7 0 -19 -9 -27
-19 -7 -11 -17 -18 -22 -15 -4 3 -8 1 -8 -5 0 -5 -9 -13 -21 -16 -11 -4 -18
-9 -15 -12 3 -3 -5 -15 -18 -27 -13 -12 -36 -40 -50 -64 -15 -23 -31 -40 -36
-37 -5 3 -7 -4 -5 -15 2 -11 -4 -28 -14 -38 -18 -18 -35 -51 -33 -64 1 -5 -3
-8 -10 -8 -6 0 -8 -3 -5 -6 3 -4 1 -16 -5 -28 -7 -11 -13 -23 -13 -26 0 -3 -6
-15 -13 -27 -7 -13 -10 -23 -7 -23 4 0 -3 -13 -14 -28 -11 -16 -23 -40 -26
-55 -4 -15 -11 -27 -15 -27 -5 0 -12 -15 -15 -32 -4 -18 -10 -37 -13 -43 -8
-12 -11 -35 -16 -110 -3 -33 -5 -62 -6 -65 -1 -3 -1 -9 0 -15 1 -5 -2 -7 -6
-3 -4 4 -13 3 -21 -3 -9 -9 -13 -8 -13 0 0 6 -9 11 -19 11 -11 0 -22 4 -25 8
-9 14 -55 8 -76 -11 -19 -16 -21 -26 -25 -112 -1 -37 25 -94 47 -103 11 -5 10
-74 -1 -91 -5 -7 -23 -14 -41 -15 -21 -1 -37 -9 -44 -21 -6 -10 -19 -28 -29
-39 -28 -31 -40 -65 -43 -126 -2 -58 10 -89 50 -122 12 -10 26 -22 33 -28 7
-5 15 -10 19 -10 4 0 15 -7 25 -16 9 -8 28 -16 42 -18 32 -3 70 -28 121 -79
37 -37 45 -40 88 -38 28 1 48 -2 48 -9 0 -5 8 -10 18 -10 10 0 24 -9 32 -20 8
-11 19 -20 25 -20 14 0 45 -37 38 -44 -3 -3 -1 -12 5 -19 7 -8 9 -17 5 -20 -3
-4 -1 -7 6 -7 7 0 10 -4 7 -9 -3 -5 6 -21 19 -35 14 -15 25 -31 25 -35 0 -4 9
-16 20 -26 11 -10 20 -24 20 -31 0 -6 16 -32 36 -56 20 -23 43 -56 50 -73 7
-16 23 -41 36 -55 13 -13 22 -27 21 -30 -1 -3 6 -15 17 -27 10 -12 17 -23 15
-25 -2 -2 18 -30 46 -62 27 -32 57 -72 65 -87 8 -16 19 -29 24 -29 6 0 10 -6
10 -13 0 -23 25 -67 36 -64 13 2 57 -28 94 -66 15 -15 37 -27 49 -27 11 0 21
-4 21 -9 0 -5 14 -14 30 -21 17 -7 30 -17 30 -22 0 -5 3 -7 8 -5 10 5 51 -40
43 -48 -3 -4 -1 -6 4 -5 6 1 12 1 15 0 3 -1 21 -3 40 -5 44 -5 71 -10 90 -18
106 -41 151 -50 252 -52 68 -1 118 3 132 10 25 13 71 27 100 30 11 1 30 15 43
31 13 16 35 42 48 58 15 17 27 45 29 70 3 22 18 94 35 158 16 65 28 127 26
138 -2 11 0 20 6 20 5 0 9 8 9 19 0 10 9 30 20 44 11 14 20 32 20 40 0 9 5 19
10 22 6 4 8 11 5 16 -4 5 -1 9 5 9 6 0 8 5 5 10 -3 5 -1 10 4 10 6 0 11 5 11
11 0 6 6 17 13 24 32 37 62 77 63 86 1 5 3 11 4 14 1 3 3 8 5 13 1 4 7 21 14
37 7 17 16 50 20 75 4 25 9 50 11 55 20 61 33 76 70 80 3 0 21 11 40 25 24 17
49 25 80 26 25 0 54 4 65 9 29 12 65 46 59 56 -3 5 0 9 5 9 6 0 11 7 11 15 0
8 5 15 11 15 5 0 7 5 4 10 -3 6 -2 10 3 10 5 0 15 13 22 30 7 16 16 27 21 24
5 -3 9 -2 8 3 -4 14 13 63 21 63 5 0 8 26 8 57 0 32 2 88 4 126 2 37 0 67 -4
67 -4 0 -5 6 -2 14 3 8 0 17 -5 21 -6 3 -9 11 -5 16 3 5 0 8 -8 7 -7 -2 -12 3
-10 10 1 6 -3 12 -9 12 -5 0 -7 5 -4 10 3 6 -1 10 -9 10 -8 0 -18 9 -21 20 -6
17 -16 24 -35 22 -3 0 -7 10 -8 23 -2 33 -6 49 -12 55 -12 12 -30 51 -30 65 0
8 -4 15 -8 15 -5 0 -9 6 -10 13 -2 24 -8 47 -15 53 -4 4 -7 15 -7 25 0 10 -13
34 -30 52 -16 19 -30 40 -30 46 0 7 -4 9 -10 6 -9 -5 -12 1 -9 21 0 3 -9 14
-20 23 -11 10 -18 21 -14 25 3 3 -2 6 -12 6 -10 0 -15 3 -12 6 7 7 -23 64 -33
64 -3 0 -6 21 -8 47 -2 26 -7 50 -11 53 -7 5 -51 109 -54 127 -1 4 -8 16 -16
25 -8 9 -16 27 -18 40 -2 13 -8 25 -13 26 -6 2 -8 7 -5 12 8 13 -25 41 -38 33
-7 -3 -9 -3 -5 2 4 4 1 13 -6 19 -8 6 -16 20 -18 31 -2 11 -11 29 -20 39 -10
11 -18 26 -18 35 0 8 -3 12 -6 8 -8 -8 -44 25 -38 35 3 4 0 8 -6 8 -6 0 -21
10 -33 23 -12 12 -28 23 -36 25 -7 1 -20 9 -28 17 -8 9 -19 13 -24 10 -5 -4
-9 1 -9 9 0 9 -3 16 -7 17 -13 1 -36 6 -83 19 -25 7 -67 14 -95 16 -63 5 -120
11 -120 14 0 12 -292 18 -356 8z"/>
</g>
</svg>
